{"title":"Stephen Kings The Stand DVDRip[ExtraTorrent]","uid":5593174,"size":2943938560,"categoryP":"video","categoryS":"movies","magnet":"?xt=urn:btih:0ccbfa4adf7c6f0ca37248127f0a3b9c130bf879&amp;dn=Stephen+Kings+The+Stand+DVDRip%5BExtraTorrent%5D&amp;tr=udp%3A%2F%2Ftracker.openbittorrent.com%3A80&amp;tr=udp%3A%2F%2Fopen.demonii.com%3A1337&amp;tr=udp%3A%2F%2Ftracker.coppersurfer.tk%3A6969&amp;tr=udp%3A%2F%2Fexodus.desync.com%3A6969","seeders":1,"leechers":1,"uploader":"raymondhome","files":-1,"time":1274946419,"description":"Love for All and Sharing is the first step to solving all the problems of humanity.\n\nWebsites I want to share.\n\n    &lt;a href=&quot;\nhttp://www.shareintl.org/&quot; rel=&quot;nofollow&quot; target=&quot;_NEW&quot;&gt;\nhttp://www.shareintl.org/&lt;/a&gt;\n\n    &lt;a href=&quot;\nhttp://www.lightmiddleway.com&quot; rel=&quot;nofollow&quot; target=&quot;_NEW&quot;&gt;\nhttp://www.lightmiddleway.com&lt;/a&gt;\n\n\nThank you very much\n\nNo credit for me...credit to EVERYONE for sharing\n &lt;a href=&quot;\nhttp://thepiratebay.se/user/raymondhome/&quot; rel=&quot;nofollow&quot; target=&quot;_NEW&quot;&gt;\nhttp://thepiratebay.se/user/raymondhome/&lt;/a&gt;\n\nPLOT\nAfter the world is decimated by a man-made plague, a battle of literally Biblical proportions ensues between the survivors.\n\nIMDb RATING: 7.2/10 (12,158 votes)\n\nVideo\nFormat : div3\nCodec ID : div3\nDuration : 1h 28mn\nBit rate : 965 Kbps\nWidth : 544 pixels\nHeight : 400 pixels\nDisplay aspect ratio : 4:3\nFrame rate : 23.976 fps\nBits/(Pixel*Frame) : 0.185\nStream size : 612 MiB (87%)\n\nAudio\nID : 1\nFormat : MPEG Audio\nFormat version : Version 1\nFormat profile : Layer 3\nCodec ID : 55\nCodec ID/Hint : MP3\nDuration : 1h 28mn\nBit rate mode : Constant\nBit rate : 128 Kbps\nChannel(s) : 2 channels\nSampling rate : 48.0 KHz\nStream size : 81.2 MiB (12%)\nAlignment : Aligned on interleaves\nInterleave, duration : 24 ms (0.58 video frame)\nInterleave, preload duration : 480 ms\n\ncredit Shedevil BIG BIG BIG TIME &amp; to all the people who made it possible for us to share this...especially EVERYONE involve in the production of the movie...IF YOU LIKE IT...BUY IT :)\n\n*****help what we can with others in need...the world is ONE big family*****","torrent":{"xt":"urn:btih:0ccbfa4adf7c6f0ca37248127f0a3b9c130bf879","amp;dn":"Stephen+Kings+The+Stand+DVDRip%5BExtraTorrent%5D","amp;tr":["udp%3A%2F%2Ftracker.openbittorrent.com%3A80","udp%3A%2F%2Fopen.demonii.com%3A1337","udp%3A%2F%2Ftracker.coppersurfer.tk%3A6969","udp%3A%2F%2Fexodus.desync.com%3A6969"],"infoHash":"0ccbfa4adf7c6f0ca37248127f0a3b9c130bf879","infoHashBuffer":{"type":"Buffer","data":[12,203,250,74,223,124,111,12,163,114,72,18,127,10,59,156,19,11,248,121]},"announce":[],"urlList":[]}}